<?xml version="1.0" encoding="UTF-8" standalone="no"?>
<!DOCTYPE svg PUBLIC "-//W3C//DTD SVG 1.1//EN"
 "http://www.w3.org/Graphics/SVG/1.1/DTD/svg11.dtd">
<!-- Generated by graphviz version 2.40.1 (20161225.0304)
 -->
<!-- Title: %0 Pages: 1 -->
<svg width="175pt" height="222pt"
 viewBox="0.00 0.00 174.57 221.60" xmlns="http://www.w3.org/2000/svg" xmlns:xlink="http://www.w3.org/1999/xlink">
<g id="graph0" class="graph" transform="scale(1 1) rotate(0) translate(4 217.6)">
<title>%0</title>
<polygon fill="#ffffff" stroke="transparent" points="-4,4 -4,-217.6 170.57,-217.6 170.57,4 -4,4"/>
<!-- A -->
<g id="node1" class="node">
<title>A</title>
<ellipse fill="none" stroke="#000000" cx="67.8099" cy="-195.6" rx="37.6768" ry="18"/>
<text text-anchor="middle" x="67.8099" y="-191.4" font-family="Times,serif" font-size="14.00" fill="#000000">State 0</text>
</g>
<!-- A&#45;&gt;A -->
<g id="edge2" class="edge">
<title>A&#45;&gt;A</title>
<path fill="none" stroke="#000000" d="M101.4603,-203.8419C113.5454,-204.0192 123.3982,-201.2719 123.3982,-195.6 123.3982,-191.7006 118.7412,-189.1835 111.9035,-188.0487"/>
<polygon fill="#000000" stroke="#000000" points="111.6695,-184.5257 101.4603,-187.3581 111.2075,-191.5104 111.6695,-184.5257"/>
<text text-anchor="middle" x="144.9841" y="-191.4" font-family="Times,serif" font-size="14.00" fill="#000000">input: 1</text>
</g>
<!-- B -->
<g id="node2" class="node">
<title>B</title>
<ellipse fill="none" stroke="#000000" cx="51.8099" cy="-106.8" rx="37.6768" ry="18"/>
<text text-anchor="middle" x="51.8099" y="-102.6" font-family="Times,serif" font-size="14.00" fill="#000000">State 1</text>
</g>
<!-- A&#45;&gt;B -->
<g id="edge1" class="edge">
<title>A&#45;&gt;B</title>
<path fill="none" stroke="#000000" d="M35.7878,-185.9283C23.1502,-180.3665 9.9293,-171.9572 2.6381,-159.6 -4.7244,-147.1219 4.6037,-135.141 17.0433,-125.7553"/>
<polygon fill="#000000" stroke="#000000" points="19.226,-128.5035 25.5231,-119.9831 15.287,-122.7169 19.226,-128.5035"/>
<text text-anchor="middle" x="24.3958" y="-147" font-family="Times,serif" font-size="14.00" fill="#000000">input: 0</text>
</g>
<!-- B&#45;&gt;A -->
<g id="edge4" class="edge">
<title>B&#45;&gt;A</title>
<path fill="none" stroke="#000000" d="M55.0429,-124.7433C57.2539,-137.0141 60.2295,-153.5287 62.7518,-167.5274"/>
<polygon fill="#000000" stroke="#000000" points="59.3542,-168.4091 64.5721,-177.63 66.2433,-167.1678 59.3542,-168.4091"/>
<text text-anchor="middle" x="83.3958" y="-147" font-family="Times,serif" font-size="14.00" fill="#000000">input: 1</text>
</g>
<!-- C -->
<g id="node3" class="node">
<title>C</title>
<ellipse fill="none" stroke="#000000" cx="88.8099" cy="-18" rx="37.6768" ry="18"/>
<text text-anchor="middle" x="88.8099" y="-13.8" font-family="Times,serif" font-size="14.00" fill="#000000">State 2</text>
</g>
<!-- B&#45;&gt;C -->
<g id="edge3" class="edge">
<title>B&#45;&gt;C</title>
<path fill="none" stroke="#000000" d="M56.5455,-88.872C59.5263,-78.496 63.7334,-65.296 68.6381,-54 69.9792,-50.9114 71.5078,-47.7434 73.1098,-44.6294"/>
<polygon fill="#000000" stroke="#000000" points="76.3263,-46.0404 78.0221,-35.5821 70.1746,-42.7002 76.3263,-46.0404"/>
<text text-anchor="middle" x="90.3958" y="-58.2" font-family="Times,serif" font-size="14.00" fill="#000000">input: 0</text>
</g>
<!-- C&#45;&gt;A -->
<g id="edge5" class="edge">
<title>C&#45;&gt;A</title>
<path fill="none" stroke="#000000" d="M102.4353,-34.9639C106.2343,-40.6768 109.8547,-47.3081 111.8099,-54 124.9776,-99.068 128.8939,-117.1601 108.8099,-159.6 106.2661,-164.9755 102.5041,-169.8795 98.2744,-174.22"/>
<polygon fill="#000000" stroke="#000000" points="95.8891,-171.6583 90.8472,-180.9766 100.5996,-176.8364 95.8891,-171.6583"/>
<text text-anchor="middle" x="144.3958" y="-102.6" font-family="Times,serif" font-size="14.00" fill="#000000">input: 1</text>
</g>
</g>
</svg>
